<svg xmlns="http://www.w3.org/2000/svg" viewBox="0 0 240 150" width="240" height="150" font-family="Helvetica, Arial, 'Hiragino Sans', 'Yu Gothic', Meiryo, sans-serif" ><rect width="240" height="150" fill="#fff"/><rect x="6" y="6" width="228" height="138" rx="12" fill="#ead6b4"/><rect x="6" y="6" width="228" height="138" rx="12" fill="none" stroke="#d4b98c" stroke-width="2"/><rect x="34" y="58.967195136196096" width="56" height="3.5" rx="1.5" fill="#c9692a" transform="rotate(-0.4027231951477006 62 58.967195136196096)"/><rect x="140.9160852186469" y="44.80771264991199" width="56" height="3.5" rx="1.5" fill="#e8833a" transform="rotate(-9.434451479755808 168.9160852186469 44.80771264991199)"/><rect x="40.63730764455977" y="97.711881671853" width="56" height="3.5" rx="1.5" fill="#e8833a" transform="rotate(17.31959117227234 68.63730764455977 97.711881671853)"/><rect x="98.75382027539308" y="78.09585571489879" width="56" height="3.5" rx="1.5" fill="#c9692a" transform="rotate(-16.84253636878566 126.75382027539308 78.09585571489879)"/><rect x="77.35311086336151" y="66.75292667993926" width="56" height="3.5" rx="1.5" fill="#e8833a" transform="rotate(-13.378548952459823 105.35311086336151 66.75292667993926)"/><rect x="86.60362388045178" y="102.34039697650587" width="56" height="3.5" rx="1.5" fill="#e8833a" transform="rotate(-0.09698266374471132 114.60362388045178 102.34039697650587)"/><rect x="106.62606566649629" y="72.07504475145834" width="56" height="3.5" rx="1.5" fill="#c9692a" transform="rotate(15.727883380022831 134.6260656664963 72.07504475145834)"/><rect x="53.20729509681041" y="53.099351834505796" width="56" height="3.5" rx="1.5" fill="#e8833a" transform="rotate(-6.250371224305127 81.20729509681041 53.099351834505796)"/><rect x="72.17687212018791" y="59.509968369296985" width="56" height="3.5" rx="1.5" fill="#e8833a" transform="rotate(2.8960463288240135 100.17687212018791 59.509968369296985)"/><rect x="96.59644786684657" y="49.293829942260345" width="56" height="3.5" rx="1.5" fill="#c9692a" transform="rotate(8.674735178356059 124.59644786684657 49.293829942260345)"/><rect x="146.69543295606854" y="48.90551467388286" width="56" height="3.5" rx="1.5" fill="#e8833a" transform="rotate(17.803836437233258 174.69543295606854 48.90551467388286)"/><rect x="129.25799006942543" y="42.24692633327504" width="56" height="3.5" rx="1.5" fill="#e8833a" transform="rotate(-11.674033689778298 157.25799006942543 42.24692633327504)"/><rect x="54.76907414695597" y="97.62816802988527" width="56" height="3.5" rx="1.5" fill="#c9692a" transform="rotate(5.6478455609612865 82.76907414695597 97.62816802988527)"/><rect x="149.43992913646798" y="37.26696341810748" width="56" height="3.5" rx="1.5" fill="#e8833a" transform="rotate(-18.117440392816206 177.43992913646798 37.26696341810748)"/><rect x="128.65892240343965" y="42.692264873039676" width="56" height="3.5" rx="1.5" fill="#e8833a" transform="rotate(-18.740430940088117 156.65892240343965 42.692264873039676)"/><rect x="85.25070304945257" y="41.89206448041659" width="56" height="3.5" rx="1.5" fill="#c9692a" transform="rotate(-0.023634122335352004 113.25070304945257 41.89206448041659)"/><rect x="141.51794278310263" y="81.41902097712591" width="56" height="3.5" rx="1.5" fill="#e8833a" transform="rotate(-1.7296331483521499 169.51794278310263 81.41902097712591)"/><rect x="84.36669122544117" y="54.35239981774794" width="56" height="3.5" rx="1.5" fill="#e8833a" transform="rotate(-1.2968572333920747 112.36669122544117 54.35239981774794)"/><rect x="108.72560512486962" y="65.49326860650035" width="56" height="3.5" rx="1.5" fill="#c9692a" transform="rotate(16.65503048483515 136.72560512486962 65.49326860650035)"/><rect x="71.42665825542645" y="60.941481944260886" width="56" height="3.5" rx="1.5" fill="#e8833a" transform="rotate(-3.9363261840480845 99.42665825542645 60.941481944260886)"/><rect x="122.20376842061523" y="63.95662438572617" width="56" height="3.5" rx="1.5" fill="#e8833a" transform="rotate(19.804579442243266 150.20376842061523 63.95662438572617)"/><rect x="98.49954804161098" y="74.55968310998287" width="56" height="3.5" rx="1.5" fill="#c9692a" transform="rotate(-9.282222320471192 126.49954804161098 74.55968310998287)"/><rect x="110.66166589708155" y="49.168303174345056" width="56" height="3.5" rx="1.5" fill="#e8833a" transform="rotate(10.507481313543394 138.66166589708155 49.168303174345056)"/><rect x="82.64323762222193" y="38.19554353870626" width="56" height="3.5" rx="1.5" fill="#e8833a" transform="rotate(18.956718633999117 110.64323762222193 38.19554353870626)"/><rect x="49.74861528121983" y="50.46042493544701" width="56" height="3.5" rx="1.5" fill="#c9692a" transform="rotate(-15.73381641850574 77.74861528121983 50.46042493544701)"/><rect x="72.33448503693216" y="81.21183855084382" width="56" height="3.5" rx="1.5" fill="#e8833a" transform="rotate(-19.957780040276702 100.33448503693216 81.21183855084382)"/><rect x="91.45757903336198" y="47.713334320578724" width="56" height="3.5" rx="1.5" fill="#e8833a" transform="rotate(9.25594264321262 119.45757903336198 47.713334320578724)"/><rect x="34.03683656748035" y="88.64962829113938" width="56" height="3.5" rx="1.5" fill="#c9692a" transform="rotate(-7.754723690177343 62.03683656748035 88.64962829113938)"/></svg>
