<svg xmlns="http://www.w3.org/2000/svg" viewBox="0 0 240 150" width="240" height="150" font-family="Helvetica, Arial, 'Hiragino Sans', 'Yu Gothic', Meiryo, sans-serif" ><rect width="240" height="150" fill="#fff"/><rect x="6" y="6" width="228" height="138" rx="12" fill="#ead6b4"/><rect x="6" y="6" width="228" height="138" rx="12" fill="none" stroke="#d4b98c" stroke-width="2"/><rect x="31" y="35" width="36" height="14" fill="#c9692a"/><rect x="28" y="32" width="36" height="14" fill="#e8833a"/><rect x="79" y="35" width="36" height="14" fill="#c9692a"/><rect x="76" y="32" width="36" height="14" fill="#e8833a"/><rect x="127" y="35" width="36" height="14" fill="#c9692a"/><rect x="124" y="32" width="36" height="14" fill="#e8833a"/><rect x="175" y="35" width="36" height="14" fill="#c9692a"/><rect x="172" y="32" width="36" height="14" fill="#e8833a"/><rect x="31" y="87" width="36" height="14" fill="#c9692a"/><rect x="28" y="84" width="36" height="14" fill="#e8833a"/><rect x="79" y="87" width="36" height="14" fill="#c9692a"/><rect x="76" y="84" width="36" height="14" fill="#e8833a"/><rect x="127" y="87" width="36" height="14" fill="#c9692a"/><rect x="124" y="84" width="36" height="14" fill="#e8833a"/><rect x="175" y="87" width="36" height="14" fill="#c9692a"/><rect x="172" y="84" width="36" height="14" fill="#e8833a"/></svg>
