<?xml version="1.0" encoding="UTF-8"?>
<svg xmlns="http://www.w3.org/2000/svg" width="100" height="100" viewBox="0 0 100 100">
  <path d="m17.871,59.849c.611-.012,1.117.473,1.129,1.085.012.611-.473,1.117-1.085,1.129-.007,0-.015,0-.022,0-.603,0-1.095-.482-1.107-1.085-.012-.611.473-1.117,1.085-1.129Zm2.214,8.671c-.611.012-1.097.518-1.085,1.129.012.603.504,1.085,1.107,1.085.007,0,.015,0,.022,0,.611-.012,1.097-.518,1.085-1.129-.012-.611-.518-1.097-1.129-1.085Zm-4.169,4.484h.058c.279.002.549-.102.755-.29.009-.008.018-.016.026-.024.425-.407.439-1.081.031-1.506l-7.232-7.641-1.625,1.475,7.232,7.642c.197.209.468.333.755.345Zm6.793-62.199c.045-.023.088-.05.129-.081.402-.302.483-.872.181-1.274-.373-.458-1.025-.576-1.534-.277-2.457,1.198-3.907,3.799-3.634,6.519.103.519.57.884,1.098.859h.131c.011,0,.021-.001.032-.002.559-.039.98-.525.94-1.083-.163-1.953.893-3.806,2.657-4.661Zm8.514,55.521l-2.985-3.06-2.628,3.062,2.626,3.375,2.987-3.377ZM14.518,14.396c.109-4.906,4.176-8.795,9.082-8.685,4.752.106,8.579,3.933,8.685,8.685-.215,4.607-2.302,8.926-5.777,11.957.511.793.73,1.738.62,2.675-.108.378-.37.693-.722.868-.7.255-1.436.394-2.181.41-.158.33-.259.684-.299,1.047-.011.131.188.405.381.664.485.585.805,1.289.926,2.039.221,1.993-1.993,3.1-2.256,3.206-.55.263-1.209.033-1.475-.516v-.009c-.256-.536-.029-1.179.508-1.435.006-.003.013-.006.019-.009.443-.221,1.041-.693,1.005-1.003-.088-.382-.271-.736-.531-1.03-.518-.577-.798-1.329-.782-2.104.029-.315.088-.627.177-.93-.331-.041-.656-.115-.972-.221-.535-.151-.981-.522-1.227-1.021-.298-.924-.06-1.938.618-2.633-3.485-3.026-5.581-7.347-5.799-11.957Zm10.341,13.662c-.101-.259-.216-.514-.343-.762-.696.179-1.426.188-2.126.024-.209.213-.394.449-.549.704.999.156,2.016.167,3.018.033Zm-5.835-6.446c1.384,2.29,3.02,3.658,4.375,3.658s2.994-1.366,4.375-3.658c1.347-2.182,2.136-4.663,2.296-7.223-.067-3.684-3.108-6.616-6.792-6.549-3.589.065-6.484,2.959-6.549,6.549.16,2.56.947,5.04,2.294,7.223Zm8.315,39.133c.009-.007.017-.014.026-.021.454-.376.518-1.048.142-1.503-.388-.463-1.072-.537-1.55-.168-3.344,2.641-4.677,7.092-3.335,11.136.021.077.052.151.091.221.195.356.569.577.974.576.096,0,.192-.012.286-.035.005-.001.01-.003.016-.004.578-.154.922-.747.768-1.325-1.138-3.206-.098-6.781,2.582-8.877ZM60.834,21.254c-.604.015-1.082.516-1.067,1.12h.002c.007.595.494,1.072,1.089,1.067.009,0,.019,0,.029,0,.604-.015,1.082-.516,1.067-1.12-.015-.604-.516-1.082-1.12-1.067ZM9.775,72.849l-2.879-1.918-1.55,2.839,2.657,2.223,1.771-3.144Zm71.225-40.367c-3.337,1.95-5.216,5.679-4.796,9.522.076.547.544.954,1.096.954.044.003.087.003.131,0,.003,0,.007,0,.01-.001.597-.067,1.026-.605.96-1.201-.304-3.023,1.193-5.943,3.824-7.462.009-.006.018-.012.027-.018.488-.332.615-.997.283-1.486-.344-.501-1.024-.637-1.534-.308Zm-23.837-11.339h-9.889c-.68,0-1.231.551-1.231,1.231s.551,1.231,1.231,1.231h9.889c.68,0,1.231-.551,1.231-1.231s-.551-1.231-1.231-1.231Zm31.075,35.475c.628.988.909,2.156.799,3.321-.118.411-.402.753-.784.946-.987.345-2.024.525-3.069.534-.292.557-.478,1.163-.551,1.787-.026.308.21.649.596,1.185.626.745,1.039,1.645,1.194,2.606.233,1.993-1.687,3.448-2.859,3.986-.148.068-.309.103-.472.104-.423.006-.813-.231-1.003-.609v.002c-.255-.537-.026-1.179.51-1.434l.017-.008c.363-.171,1.703-.976,1.608-1.785-.124-.593-.4-1.144-.802-1.599-.654-.714-1.01-1.651-.996-2.619.054-.563.18-1.117.377-1.647-.59-.045-1.173-.159-1.736-.341-.627-.171-1.153-.6-1.446-1.18-.337-1.14-.025-2.374.813-3.217-4.821-3.131-8.29-11.379-8.29-16.638,0-6.726,5.453-12.179,12.179-12.179s12.179,5.453,12.179,12.179c0,5.243-3.456,13.478-8.262,16.607Zm-1.388,2.447c-.154-.509-.356-1.002-.602-1.472-1.221.4-2.537.411-3.764.029-.062.075-.128.153-.195.232l.002.004c-.301.303-.517.679-.629,1.092.864.288,1.777.403,2.686.337.839-.003,1.676-.077,2.502-.222Zm4.176-8.742c1.918-3.117,3.037-6.659,3.259-10.312,0-5.503-4.461-9.964-9.964-9.964s-9.964,4.461-9.964,9.964c.222,3.653,1.342,7.195,3.259,10.312,2.077,3.437,4.522,5.409,6.705,5.409s4.63-1.971,6.705-5.409Zm-22.893-26.881v46.905c-.046,3.831-3.185,6.902-7.017,6.864h-17.803c-3.832.038-6.971-3.033-7.017-6.864V23.428c.047-3.831,3.186-6.901,7.017-6.864h17.803c3.836-.037,6.977,3.041,7.017,6.878Zm-2.518,45.422h-26.793l-.009,1.484c.022,2.46,2.034,4.437,4.495,4.415.002,0,.003,0,.005,0h17.803c2.458.023,4.471-1.948,4.499-4.406v-1.492Zm0-40.902h-26.793l-.009,38.449h26.802V27.961Zm0-4.533c-.028-2.458-2.041-4.43-4.499-4.406h-17.803c-2.458-.022-4.47,1.949-4.499,4.406v2.077h26.802v-2.077ZM5.291,87.864l3.651,1.676,2.619-3.321-4.057-1.929-2.214,3.574Zm.449-9.596c-.027-.599-.534-1.062-1.133-1.035h-.005c-.604-.005-1.098.481-1.103,1.085.013.602.505,1.083,1.107,1.083.033.001.065.001.098,0,.599-.027,1.062-.534,1.035-1.133Zm28.902,3.241c4.181,8.662,3.968,10.835,3.118,11.893-.625.664-1.532.986-2.436.863-.146-.004-.301-.004-.465-.018-3.349-.397-6.637-1.2-9.792-2.391-4.192-1.391-8.266-2.998-9.619-3.543-.447-.125-.86-.353-1.205-.664-1.377-1.258-1.311-3.713-.084-6.437-2.26-.478-4.617-.059-6.574,1.167-.528.298-1.198.121-1.51-.399-.255-.435-.17-.989.204-1.329.061-.058.13-.108.204-.148,2.618-1.598,5.778-2.052,8.74-1.256.733-1.154,1.578-2.233,2.524-3.22,4.172-4.38,9.362-6.273,11.598-4.234.22.202.407.437.554.698.027.044,2.52,4.411,4.743,9.016Zm-10.418.436v-.011c3.749-3.937,4.468-7.781,3.614-8.56-.855-.779-4.723.188-8.47,4.125-.772.805-1.47,1.677-2.086,2.606.362.201.711.423,1.047.664.483.339.6,1.006.261,1.49-.011.015-.022.03-.033.045-.368.485-1.056.588-1.55.233-.257-.185-.525-.355-.802-.509-.923,2.02-.976,3.581-.465,4.048.026.024.053.045.082.064l.37.151c1.379.272,4.752-.901,8.031-4.345Zm3.791,3.073c1.343-1.461,2.539-3.051,3.572-4.745-.591-1.169-1.171-2.274-1.687-3.24-.88,2.392-2.263,4.568-4.054,6.382-1.674,1.813-3.692,3.274-5.937,4.298,1.025.385,2.192.813,3.403,1.233,1.692-1.153,3.267-2.469,4.703-3.928Zm-2.188,4.805c1.33.436,2.472.79,3.477,1.078.957-.704,1.847-1.495,2.657-2.364.801-.916,1.514-1.905,2.13-2.954-.383-.886-.837-1.873-1.377-3-.924,1.389-1.961,2.7-3.1,3.919-1.17,1.208-2.436,2.319-3.786,3.321Zm9.287-1.743c-.454.662-.95,1.295-1.486,1.893-.526.575-1.088,1.116-1.683,1.621,1.31.456,2.707.602,4.083.427h-.002c.017-1.368-.296-2.72-.912-3.941Zm14.094-15.135h6.018c.035.001.07.001.104,0,.681-.029,1.209-.604,1.18-1.285-.029-.68-.604-1.209-1.284-1.18h-6.018c-.035-.001-.07-.001-.104,0-.681.029-1.209.604-1.18,1.284.029.681.604,1.209,1.285,1.18Z" style="fill: #1074cc;"/>
</svg>
