<?xml version="1.0" encoding="UTF-8"?>
<svg id="_レイヤー_3のコピー" xmlns="http://www.w3.org/2000/svg" version="1.1" viewBox="0 0 512 512">
  <!-- Generator: Adobe Illustrator 29.3.1, SVG Export Plug-In . SVG Version: 2.1.0 Build 151)  -->
  <defs>
    <style>
      .st0 {
        fill: none;
      }

      .st1 {
        fill: #999;
      }
    </style>
  </defs>
  <rect class="st0" width="512" height="512"/>
  <path class="st1" d="M154.7,257.1h-39.7c-21.8,0-39.8,16.4-42.4,37.5-10.8,8.2-17.8,21.1-17.8,35.6s9.4,31.7,23.3,39.3c3.3,16.6,15.8,29.8,31.9,34.3,5.8,18.6,23.2,32.1,43.6,32.1h208.1l5.3-2.3,103.2-44.7c13.1-5.7,19.8-20.3,15.6-33.9h.2l-31.8-105.4-4-13-12.7-4.9-45.4-17.4-4.8-1.9h-189.9c-23.5,0-42.7,19.1-42.7,42.7v2h0ZM356.1,405.7h-202.2c-8.1,0-14.7-6.6-14.7-14.7h0c0-2.6.7-5.1,1.9-7.3h98.9v-7.4h-117.9c-8.1,0-14.7-6.6-14.7-14.7s1-6,2.6-8.4h130v-7.4H99.6c-8.1,0-14.7-6.6-14.7-14.7h0c0-8.1,6.6-14.7,14.7-14.7h140.4v-7.6H102.8c-1.6-2.3-2.5-5.1-2.5-8.2,0-8.1,6.6-14.7,14.7-14.7h154.9v-8.7l-72.5-7.5c-10.2-1.3-14.7-6.6-14.7-14.7h0c0-8.1,6.6-14.7,14.7-14.7h184.7l45.4,17.4,31.8,105.4-103.2,42.4v.2h0ZM50.4,117.4c-4.5-15.2-.7-32.3,11.2-44.3,10.3-10.3,24.4-14.5,37.8-12.6,16.7-13.1,41.1-12,56.5,3.4l28.1,28.1c.4-.5.9-1,1.4-1.4,16.6-16.6,43.7-16.6,60.4,0l102.9,107.9h-39.6l-34.8-36.8-48.3-51.3c-5.7-5.7-15-5.7-20.8,0h0c-5.7,5.7-6.3,12.6,0,20.8l46,56.6-6.1,6.1-109.5-109.5c-5.7-5.7-15-5.7-20.8,0s-3.5,4.8-4,7.5l97,97-4.6,4.6-.6.6h-.1c0,.1-99.3-99.1-99.3-99.1-5.7-5.7-15-5.7-20.8,0h0c-5.7,5.7-5.7,15,0,20.8l89.1,89.1c-2.3,1.2-4.4,2.5-6.5,4l-80.4-80.4c-2.8.5-5.6,1.9-7.8,4.1-5.7,5.7-5.7,15,0,20.8l22.5,22.5,49.9,49.9c-1.4,2.2-2.5,4.5-3.6,6.9l-60.6-60.6c-2.4.6-4.6,1.9-6.5,3.8h0c-5.7,5.7-5.7,15,0,20.8l46.7,46.7h-10c-9.5,0-18.4,2.3-26.3,6.5l-31.8-31.8c-14.5-14.5-17.2-36.3-8.1-53.6-8.3-14.5-7.7-32.8,1.7-46.8l-.3-.3h0Z"/>
</svg>