<svg xmlns="http://www.w3.org/2000/svg" viewBox="0 0 640 210" width="640" height="210" font-family="Arial, sans-serif" font-size="11">
<rect width="640" height="210" fill="#fff"/>
<line x1="70" x2="624" y1="157.5" y2="157.5" stroke="#e3e6e6"/><text x="64" y="161.5" text-anchor="end" fill="#666">¥3,740</text><line x1="70" x2="624" y1="34.5" y2="34.5" stroke="#e3e6e6"/><text x="64" y="38.5" text-anchor="end" fill="#666">¥4,980</text>
<text x="70.0" y="198" text-anchor="middle" fill="#666">7 Jul</text><text x="254.7" y="198" text-anchor="middle" fill="#666">6 Aug</text><text x="439.3" y="198" text-anchor="middle" fill="#666">5 Sep</text><text x="624.0" y="198" text-anchor="middle" fill="#666">5 Oct</text>
<path d="M70.0,34.5H76.2V34.5H82.3V34.5H88.5V34.5H94.6V34.5H100.8V34.5H106.9V34.5H113.1V34.5H119.2V34.5H125.4V34.5H131.6V34.5H137.7V34.5H143.9V34.5H150.0V34.5H156.2V34.5H162.3V157.5H168.5V157.5H174.6V157.5H180.8V157.5H187.0V157.5H193.1V157.5H199.3V157.5H205.4V157.5H211.6V157.5H217.7V157.5H223.9V34.5H230.0V34.5H236.2V34.5H242.4V34.5H248.5V34.5H254.7V34.5H260.8V34.5H267.0V34.5H273.1V34.5H279.3V34.5H285.4V34.5H291.6V34.5H297.8V34.5H303.9V34.5H310.1V34.5H316.2V133.7H322.4V133.7H328.5V133.7H334.7V133.7H340.8V133.7H347.0V133.7H353.2V133.7H359.3V133.7H365.5V133.7H371.6V133.7H377.8V133.7H383.9V133.7H390.1V133.7H396.2V133.7H402.4V133.7H408.6V133.7H414.7V157.5H420.9V157.5H427.0V157.5H433.2V157.5H439.3V157.5H445.5V157.5H451.6V157.5H457.8V157.5H464.0V157.5H470.1V157.5H476.3V157.5H482.4V157.5H488.6V157.5H494.7V157.5H500.9V157.5H507.0V157.5H513.2V157.5H519.4V157.5H525.5V74.2H531.7V74.2H537.8V74.2H544.0V74.2H550.1V74.2H556.3V74.2H562.4V74.2H568.6V133.7H574.8V133.7H580.9V133.7H587.1V133.7H593.2V133.7H599.4V133.7H605.5V133.7H611.7V133.7H617.8V133.7H624.0V133.7" fill="none" stroke="#e8662e" stroke-width="2.2"/>
<circle cx="624.0" cy="133.7" r="4" fill="#e8662e"/>
</svg>