<svg xmlns="http://www.w3.org/2000/svg" viewBox="0 0 640 210" width="640" height="210" font-family="Arial, sans-serif" font-size="11">
<rect width="640" height="210" fill="#fff"/>
<line x1="70" x2="624" y1="157.5" y2="157.5" stroke="#e3e6e6"/><text x="64" y="161.5" text-anchor="end" fill="#666">¥22,000</text><line x1="70" x2="624" y1="34.5" y2="34.5" stroke="#e3e6e6"/><text x="64" y="38.5" text-anchor="end" fill="#666">¥27,500</text>
<text x="70.0" y="198" text-anchor="middle" fill="#666">7 Jul</text><text x="254.7" y="198" text-anchor="middle" fill="#666">6 Aug</text><text x="439.3" y="198" text-anchor="middle" fill="#666">5 Sep</text><text x="624.0" y="198" text-anchor="middle" fill="#666">5 Oct</text>
<path d="M70.0,96.0H76.2V96.0H82.3V96.0H88.5V96.0H94.6V96.0H100.8V96.0H106.9V96.0H113.1V96.0H119.2V96.0H125.4V96.0H131.6V157.5H137.7V157.5H143.9V157.5H150.0V157.5H156.2V157.5H162.3V157.5H168.5V157.5H174.6V157.5H180.8V157.5H187.0V96.0H193.1V96.0H199.3V96.0H205.4V96.0H211.6V96.0H217.7V96.0H223.9V96.0H230.0V96.0H236.2V96.0H242.4V96.0H248.5V96.0H254.7V96.0H260.8V96.0H267.0V96.0H273.1V96.0H279.3V34.5H285.4V34.5H291.6V34.5H297.8V34.5H303.9V34.5H310.1V34.5H316.2V34.5H322.4V34.5H328.5V34.5H334.7V157.5H340.8V157.5H347.0V157.5H353.2V157.5H359.3V157.5H365.5V157.5H371.6V157.5H377.8V157.5H383.9V157.5H390.1V157.5H396.2V157.5H402.4V157.5H408.6V157.5H414.7V157.5H420.9V157.5H427.0V157.5H433.2V157.5H439.3V157.5H445.5V157.5H451.6V157.5H457.8V34.5H464.0V34.5H470.1V34.5H476.3V34.5H482.4V34.5H488.6V34.5H494.7V34.5H500.9V34.5H507.0V34.5H513.2V34.5H519.4V34.5H525.5V34.5H531.7V34.5H537.8V34.5H544.0V34.5H550.1V34.5H556.3V34.5H562.4V34.5H568.6V157.5H574.8V157.5H580.9V157.5H587.1V157.5H593.2V157.5H599.4V157.5H605.5V157.5H611.7V157.5H617.8V157.5H624.0V157.5" fill="none" stroke="#e8662e" stroke-width="2.2"/>
<circle cx="624.0" cy="157.5" r="4" fill="#e8662e"/>
</svg>