<svg xmlns="http://www.w3.org/2000/svg" viewBox="0 0 640 254" width="640" height="254" font-family="Helvetica Neue, Arial, Hiragino Sans, Yu Gothic, Meiryo, sans-serif"><rect width="640" height="254" fill="#fff"/><text x="12" y="24" font-size="16" font-weight="700" fill="#1b1b1b">歳入の内訳（2026年度、1,962億円）</text><text x="12" y="43" font-size="12" fill="#6a6a6a">単位：億円</text><text x="182" y="73.5" font-size="12" text-anchor="end" fill="#333">市税</text><rect x="190" y="62" width="371.3" height="12" fill="#0e2d4f"/><text x="566.3142857142857" y="72" font-size="11" fill="#333">684</text><text x="182" y="100.5" font-size="12" text-anchor="end" fill="#333">国庫支出金</text><rect x="190" y="89" width="217.7" height="12" fill="#0e2d4f"/><text x="412.6857142857143" y="99" font-size="11" fill="#333">401</text><text x="182" y="127.5" font-size="12" text-anchor="end" fill="#333">地方交付税</text><rect x="190" y="116" width="169.4" height="12" fill="#0e2d4f"/><text x="364.37142857142857" y="126" font-size="11" fill="#333">312</text><text x="182" y="154.5" font-size="12" text-anchor="end" fill="#333">その他</text><rect x="190" y="143" width="133.5" height="12" fill="#0e2d4f"/><text x="328.54285714285714" y="153" font-size="11" fill="#333">246</text><text x="182" y="181.5" font-size="12" text-anchor="end" fill="#333">市債</text><rect x="190" y="170" width="93.9" height="12" fill="#0e2d4f"/><text x="288.9142857142857" y="180" font-size="11" fill="#333">173</text><text x="182" y="208.5" font-size="12" text-anchor="end" fill="#333">県支出金</text><rect x="190" y="197" width="79.3" height="12" fill="#0e2d4f"/><text x="274.25714285714287" y="207" font-size="11" fill="#333">146</text><line x1="190" y1="58" x2="190" y2="228" stroke="#999"/><text x="12" y="246" font-size="10.5" fill="#888">出典：春川市財政課</text></svg>