<svg xmlns="http://www.w3.org/2000/svg" viewBox="0 0 640 488" width="640" height="488" font-family="Helvetica Neue, Arial, Hiragino Sans, Yu Gothic, Meiryo, sans-serif"><rect width="640" height="488" fill="#fff"/><text x="12" y="24" font-size="16" font-weight="700" fill="#1b1b1b">Where the money goes: general account by purpose</text><text x="12" y="43" font-size="12" fill="#6a6a6a">Initial budgets, ¥ billion</text><rect x="12" y="54" width="11" height="11" fill="#9fb4c7"/><text x="28" y="64" font-size="12" fill="#333">FY2025</text><rect x="84" y="54" width="11" height="11" fill="#0e2d4f"/><text x="100" y="64" font-size="12" fill="#333">FY2026</text><text x="242" y="99" font-size="12" text-anchor="end" fill="#333">Welfare and health</text><rect x="250" y="80" width="282.3" height="12" fill="#9fb4c7"/><text x="537.3111111111111" y="90" font-size="11" fill="#333">79.4</text><rect x="250" y="95" width="291.9" height="12" fill="#0e2d4f"/><text x="546.911111111111" y="105" font-size="11" fill="#333">82.1</text><text x="242" y="141" font-size="12" text-anchor="end" fill="#333">Education</text><rect x="250" y="122" width="80.4" height="12" fill="#9fb4c7"/><text x="335.35555555555555" y="132" font-size="11" fill="#333">22.6</text><rect x="250" y="137" width="81.8" height="12" fill="#0e2d4f"/><text x="336.77777777777777" y="147" font-size="11" fill="#333">23</text><text x="242" y="183" font-size="12" text-anchor="end" fill="#333">Civil engineering (roads, rivers, parks)</text><rect x="250" y="164" width="77.5" height="12" fill="#9fb4c7"/><text x="332.5111111111111" y="174" font-size="11" fill="#333">21.8</text><rect x="250" y="179" width="81.4" height="12" fill="#0e2d4f"/><text x="336.4222222222222" y="189" font-size="11" fill="#333">22.9</text><text x="242" y="225" font-size="12" text-anchor="end" fill="#333">Debt repayment</text><rect x="250" y="206" width="70.0" height="12" fill="#9fb4c7"/><text x="325.0444444444444" y="216" font-size="11" fill="#333">19.7</text><rect x="250" y="221" width="68.3" height="12" fill="#0e2d4f"/><text x="323.26666666666665" y="231" font-size="11" fill="#333">19.2</text><text x="242" y="267" font-size="12" text-anchor="end" fill="#333">General administration</text><rect x="250" y="248" width="60.8" height="12" fill="#9fb4c7"/><text x="315.8" y="258" font-size="11" fill="#333">17.1</text><rect x="250" y="263" width="61.9" height="12" fill="#0e2d4f"/><text x="316.8666666666667" y="273" font-size="11" fill="#333">17.4</text><text x="242" y="309" font-size="12" text-anchor="end" fill="#333">Disaster prevention and fire</text><rect x="250" y="290" width="31.6" height="12" fill="#9fb4c7"/><text x="286.64444444444445" y="300" font-size="11" fill="#333">8.9</text><rect x="250" y="305" width="33.1" height="12" fill="#0e2d4f"/><text x="288.06666666666666" y="315" font-size="11" fill="#333">9.3</text><text x="242" y="351" font-size="12" text-anchor="end" fill="#333">Commerce, tourism and labour</text><rect x="250" y="332" width="25.6" height="12" fill="#9fb4c7"/><text x="280.6" y="342" font-size="11" fill="#333">7.2</text><rect x="250" y="347" width="24.5" height="12" fill="#0e2d4f"/><text x="279.53333333333336" y="357" font-size="11" fill="#333">6.9</text><text x="242" y="393" font-size="12" text-anchor="end" fill="#333">Culture, sport and libraries</text><rect x="250" y="374" width="22.4" height="12" fill="#9fb4c7"/><text x="277.4" y="384" font-size="11" fill="#333">6.3</text><rect x="250" y="389" width="29.9" height="12" fill="#0e2d4f"/><text x="284.8666666666667" y="399" font-size="11" fill="#333">8.4</text><text x="242" y="435" font-size="12" text-anchor="end" fill="#333">Other</text><rect x="250" y="416" width="26.0" height="12" fill="#9fb4c7"/><text x="280.9555555555556" y="426" font-size="11" fill="#333">7.3</text><rect x="250" y="431" width="24.9" height="12" fill="#0e2d4f"/><text x="279.8888888888889" y="441" font-size="11" fill="#333">7</text><line x1="250" y1="76" x2="250" y2="462" stroke="#999"/><text x="12" y="480" font-size="10.5" fill="#888">Source: Springvale City Finance Division</text></svg>