<svg xmlns="http://www.w3.org/2000/svg" viewBox="0 0 640 254" width="640" height="254" font-family="Helvetica Neue, Arial, Hiragino Sans, Yu Gothic, Meiryo, sans-serif"><rect width="640" height="254" fill="#fff"/><text x="12" y="24" font-size="16" font-weight="700" fill="#1b1b1b">Most important issue for your vote</text><text x="12" y="43" font-size="12" fill="#6a6a6a">% of respondents</text><text x="242" y="73.5" font-size="12" text-anchor="end" fill="#333">Disaster prevention, flood control</text><rect x="250" y="62" width="272.0" height="12" fill="#0e2d4f"/><text x="527" y="72" font-size="11" fill="#333">34%</text><text x="242" y="100.5" font-size="12" text-anchor="end" fill="#333">Cost of living</text><rect x="250" y="89" width="216.0" height="12" fill="#0e2d4f"/><text x="471" y="99" font-size="11" fill="#333">27%</text><text x="242" y="127.5" font-size="12" text-anchor="end" fill="#333">Public transport</text><rect x="250" y="116" width="120.0" height="12" fill="#0e2d4f"/><text x="375" y="126" font-size="11" fill="#333">15%</text><text x="242" y="154.5" font-size="12" text-anchor="end" fill="#333">Childcare and education</text><rect x="250" y="143" width="88.0" height="12" fill="#0e2d4f"/><text x="343" y="153" font-size="11" fill="#333">11%</text><text x="242" y="181.5" font-size="12" text-anchor="end" fill="#333">Library and culture</text><rect x="250" y="170" width="32.0" height="12" fill="#0e2d4f"/><text x="287" y="180" font-size="11" fill="#333">4%</text><text x="242" y="208.5" font-size="12" text-anchor="end" fill="#333">Other</text><rect x="250" y="197" width="72.0" height="12" fill="#0e2d4f"/><text x="327" y="207" font-size="11" fill="#333">9%</text><line x1="250" y1="58" x2="250" y2="228" stroke="#999"/><text x="12" y="246" font-size="10.5" fill="#888">Herald poll, 26–27 September 2026</text></svg>